<svg width="147" height="46" viewBox="0 0 147 46" fill="none" xmlns="http://www.w3.org/2000/svg">
<path d="M22.5175 0.511719C10.3372 0.511719 0.447109 10.2871 0.265625 22.4136C2.18968 18.525 4.77382 16.0294 7.19896 14.0682C10.8286 11.1345 15.1971 9.71735 19.2444 9.46699C23.6787 9.19095 27.1526 10.125 29.9937 12.375C31.02 13.1871 31.8422 14.1484 32.4911 15.182C33.6956 17.095 34.2529 19.329 34.0506 21.8054C33.6137 27.1384 29.2292 31.4251 23.8843 31.7573C17.55 32.1505 12.2918 27.1336 12.2918 20.8906C12.2918 18.0387 13.3903 15.4452 15.1859 13.5033C13.1558 14.1292 11.129 15.1467 9.28041 16.6408C7.44469 18.1254 5.39857 20.1716 3.71703 22.8758C1.88132 25.8288 1.12005 29.2504 1.09756 32.7266V44.9912H22.5159C34.8102 44.9912 44.7758 35.0344 44.7758 22.7522C44.7774 10.4684 34.8102 0.511719 22.5175 0.511719Z" fill="#991E66"/>
<path d="M86.0282 15.9764H75.6363L64.448 26.5067V7.66425H56.9229V45.0606H64.448V34.5271L75.6363 45.0606H86.808L70.583 30.5185L86.0282 15.9764Z" fill="#991E66"/>
<path d="M145.938 19.6401H138.409V45.0606H145.938V19.6401Z" fill="#991E66"/>
<path d="M106.918 17.6109C104.679 16.3079 102.077 15.5486 99.2934 15.5486C90.952 15.5486 84.1899 22.2527 84.1899 30.5185C84.1899 38.7842 90.952 45.4883 99.2934 45.4883C102.077 45.4883 104.679 44.729 106.918 43.426V45.0606H114.447V15.9763H106.918V17.6109ZM99.2934 38.068C95.0862 38.068 91.6786 34.6895 91.6786 30.5185C91.6786 26.3475 95.0895 22.9689 99.2934 22.9689C103.497 22.9689 106.908 26.3475 106.908 30.5185C106.908 34.6895 103.497 38.068 99.2934 38.068Z" fill="#991E66"/>
<path d="M143.92 8.2378C141.651 7.18345 138.459 7.60121 135.383 9.35515C132.267 11.1323 129.779 14.4611 128.299 18.5194V15.9731H120.771V45.0573H128.299V24.6367C128.953 18.4697 131.962 12.8829 136.063 10.5421C137.029 9.99175 137.994 9.59388 138.927 9.34189C138.117 10.1642 137.616 11.2914 137.616 12.5348C137.616 15.0513 139.656 17.0904 142.175 17.0904C144.693 17.0904 146.734 15.0513 146.734 12.5348C146.734 11.4241 146.336 10.4062 145.672 9.61376C145.234 9.04017 144.643 8.56937 143.923 8.23449L143.92 8.2378Z" fill="#991E66"/>
</svg>
